{"title":"What.Not.To.Wear s08e13 Angie","uid":7179922,"size":549780964,"categoryP":"video","categoryS":"tv_shows","magnet":"?xt=urn:btih:0db7807dbd3bcf36bd3cd532363f4b85bd0dc0fb&amp;dn=What.Not.To.Wear+s08e13+Angie&amp;tr=udp%3A%2F%2Ftracker.openbittorrent.com%3A80&amp;tr=udp%3A%2F%2Fopen.demonii.com%3A1337&amp;tr=udp%3A%2F%2Ftracker.coppersurfer.tk%3A6969&amp;tr=udp%3A%2F%2Fexodus.desync.com%3A6969","seeders":5,"leechers":0,"uploader":"April22","files":-1,"time":1334231648,"description":"WHAT NOT TO WEAR\n\nTwo fashion stylists and a team of hair and makeup advisors help revamp the look of individuals who have been nominated by their friends for makeovers due to their lamentable appearance, using a $5,000 budget.\n\nSEASON 8 EPISODE 13 - Angie\n\nThirty-eight-year-old Angie came to the painful realization that she was spending too much time partying and that it was beginning to affect her family life. She's thrilled with the hard-won changes to her lifestyle, including her sobriety and a loss of 35 pounds, but her sad wardrobe looks like she's mourning the loss of her social life, with bits and pieces of her party-girl clothes showing up for cameos.\n\nMediaInfo:\n\nGeneral\nComplete name                    : C:MOVIESs08e13 Angie.avi\nFormat                           : AVI\nFormat/Info                      : Audio Video Interleave\nFile size                        : 524 MiB\nDuration                         : 42mn 58s\nOverall bit rate                 : 1 706 Kbps\nWriting application              : Lavf52.39.0\nWriting library                  : VirtualDub build 32842/release\n\nVideo\nID                               : 0\nFormat                           : MPEG-4 Visual\nFormat profile                   : Simple@L1\nFormat settings, BVOP            : No\nFormat settings, QPel            : No\nFormat settings, GMC             : No warppoints\nFormat settings, Matrix          : Default (H.263)\nCodec ID                         : DX50\nCodec ID/Hint                    : DivX 5\nDuration                         : 42mn 58s\nBit rate                         : 1 501 Kbps\nWidth                            : 720 pixels\nHeight                           : 448 pixels\nDisplay aspect ratio             : 1.607\nFrame rate                       : 25.000 fps\nColor space                      : YUV\nChroma subsampling               : 4:2:0\nBit depth                        : 8 bits\nScan type                        : Progressive\nCompression mode                 : Lossy\nBits/(Pixel*Frame)               : 0.186\nStream size                      : 461 MiB (88%)\nWriting library                  : Lavc52.36.0\n\nAudio\nID                               : 1\nFormat                           : MPEG Audio\nFormat version                   : Version 1\nFormat profile                   : Layer 3\nMode                             : Joint stereo\nMode extension                   : MS Stereo\nCodec ID                         : 55\nCodec ID/Hint                    : MP3\nDuration                         : 42mn 58s\nBit rate mode                    : Constant\nBit rate                         : 192 Kbps\nChannel(s)                       : 2 channels\nSampling rate                    : 48.0 KHz\nCompression mode                 : Lossy\nStream size                      : 59.0 MiB (11%)\nAlignment                        : Aligned on interleaves\nInterleave, duration             : 24 ms (0.60 video frame)\nInterleave, preload duration     : 504 ms","torrent":{"xt":"urn:btih:0db7807dbd3bcf36bd3cd532363f4b85bd0dc0fb","amp;dn":"What.Not.To.Wear+s08e13+Angie","amp;tr":["udp%3A%2F%2Ftracker.openbittorrent.com%3A80","udp%3A%2F%2Fopen.demonii.com%3A1337","udp%3A%2F%2Ftracker.coppersurfer.tk%3A6969","udp%3A%2F%2Fexodus.desync.com%3A6969"],"infoHash":"0db7807dbd3bcf36bd3cd532363f4b85bd0dc0fb","infoHashBuffer":{"type":"Buffer","data":[13,183,128,125,189,59,207,54,189,60,213,50,54,63,75,133,189,13,192,251]},"announce":[],"urlList":[]}}